<?xml version="1.0" encoding="utf-8"?>
<!-- Generator: Adobe Illustrator 25.3.0, SVG Export Plug-In . SVG Version: 6.00 Build 0)  -->
<svg version="1.1" id="Layer_2" xmlns="http://www.w3.org/2000/svg" xmlns:xlink="http://www.w3.org/1999/xlink" x="0px" y="0px"
	 viewBox="0 0 480 240" style="enable-background:new 0 0 480 240;" xml:space="preserve">
<style type="text/css">
	.st0{fill:#003fff;}
	.st1{opacity:0.3;fill:url(#SVGID_1_);enable-background:new    ;}
	.st2{opacity:0.3;fill:url(#SVGID_2_);enable-background:new    ;}
	.st3{fill:url(#SVGID_3_);}
	.st4{fill:url(#SVGID_4_);}
	.st5{fill:url(#SVGID_5_);}
	.st6{fill:url(#SVGID_6_);}
	.st7{fill:#010101;}
	.st8{fill:url(#SVGID_7_);}
	.st9{fill:#676767;}
	.st10{fill:#020303;}
	.st11{fill:url(#SVGID_8_);}
</style>
<polygon class="st0" points="3.1,130 26.1,157 26.1,159.1 52.6,128.7 50.5,126.8 29,151.3 29,95.4 26.1,95.4 26.1,152.6 5.3,128.2 
	"/>
<polygon class="st0" points="3.1,54 26.1,27 26.1,25.1 52.6,55.5 50.5,57.4 29,32.9 29,129.1 26.1,129.1 26.1,31.6 5.3,56 "/>
<g>
	
		<linearGradient id="SVGID_1_" gradientUnits="userSpaceOnUse" x1="80.3065" y1="701.3431" x2="164.0873" y2="701.3431" gradientTransform="matrix(1 0 0 1 0 -596)">
		<stop  offset="0" style="stop-color:#F3EDE5"/>
		<stop  offset="0.6126" style="stop-color:#696462"/>
		<stop  offset="1" style="stop-color:#333333"/>
	</linearGradient>
	<path class="st1" d="M159.5,93.3c0,0,5.4,0.2,4.6,2c-0.8,1.8-8.5,5.2-15.2,5.6c-6.7,0.3-29.8,1-41.2,5.4
		c-11.5,4.4-21.1,11.1-21.1,11.1l-6.2-5.1c0,0,29.9-11.7,41.9-12.6C149.3,97.7,152.5,93,159.5,93.3z"/>
	
		<linearGradient id="SVGID_2_" gradientUnits="userSpaceOnUse" x1="-1123.4165" y1="701.3431" x2="-1039.6355" y2="701.3431" gradientTransform="matrix(-1 0 0 1 -684.3164 -596)">
		<stop  offset="0" style="stop-color:#F3EDE5"/>
		<stop  offset="0.6126" style="stop-color:#696462"/>
		<stop  offset="1" style="stop-color:#333333"/>
	</linearGradient>
	<path class="st2" d="M360,93.3c0,0-5.4,0.2-4.6,2s8.5,5.2,15.2,5.6c6.7,0.3,29.8,1,41.2,5.4c11.5,4.4,21.1,11.1,21.1,11.1l6.2-5.1
		c0,0-29.9-11.7-41.9-12.6C370.1,97.7,367,93,360,93.3z"/>
	
		<radialGradient id="SVGID_3_" cx="-138.802" cy="182956.5156" r="45.1271" gradientTransform="matrix(1.9817 0 0 6.507500e-02 425.864 -11746.8955)" gradientUnits="userSpaceOnUse">
		<stop  offset="0" style="stop-color:#333333"/>
		<stop  offset="0.2109" style="stop-color:#5B5755"/>
		<stop  offset="0.4728" style="stop-color:#908A87"/>
		<stop  offset="0.7013" style="stop-color:#C0BAB5"/>
		<stop  offset="0.8846" style="stop-color:#E2DDD5"/>
		<stop  offset="1" style="stop-color:#F3EDE5"/>
	</radialGradient>
	<ellipse class="st3" cx="150.8" cy="159" rx="90.5" ry="3.2"/>
	
		<radialGradient id="SVGID_4_" cx="462.348" cy="181994.4062" r="45.1562" gradientTransform="matrix(0.7636 0 0 6.507500e-02 -197.6489 -11746.8955)" gradientUnits="userSpaceOnUse">
		<stop  offset="0" style="stop-color:#333333"/>
		<stop  offset="0.2109" style="stop-color:#5B5755"/>
		<stop  offset="0.4728" style="stop-color:#908A87"/>
		<stop  offset="0.7013" style="stop-color:#C0BAB5"/>
		<stop  offset="0.8846" style="stop-color:#E2DDD5"/>
		<stop  offset="1" style="stop-color:#F3EDE5"/>
	</radialGradient>
	<ellipse class="st4" cx="155.4" cy="96.4" rx="34.9" ry="3.2"/>
	
		<radialGradient id="SVGID_5_" cx="736.1824" cy="181994.4062" r="45.1478" gradientTransform="matrix(0.7636 0 0 6.507500e-02 -197.6489 -11746.8955)" gradientUnits="userSpaceOnUse">
		<stop  offset="0" style="stop-color:#333333"/>
		<stop  offset="0.2109" style="stop-color:#5B5755"/>
		<stop  offset="0.4728" style="stop-color:#908A87"/>
		<stop  offset="0.7013" style="stop-color:#C0BAB5"/>
		<stop  offset="0.8846" style="stop-color:#E2DDD5"/>
		<stop  offset="1" style="stop-color:#F3EDE5"/>
	</radialGradient>
	<ellipse class="st5" cx="364.5" cy="96.4" rx="34.9" ry="3.2"/>
	
		<radialGradient id="SVGID_6_" cx="-63.043" cy="182956.5156" r="45.1225" gradientTransform="matrix(2.1541 0 0 6.507500e-02 506.5009 -11746.8955)" gradientUnits="userSpaceOnUse">
		<stop  offset="0" style="stop-color:#333333"/>
		<stop  offset="0.2109" style="stop-color:#5B5755"/>
		<stop  offset="0.4728" style="stop-color:#908A87"/>
		<stop  offset="0.7013" style="stop-color:#C0BAB5"/>
		<stop  offset="0.8846" style="stop-color:#E2DDD5"/>
		<stop  offset="1" style="stop-color:#F3EDE5"/>
	</radialGradient>
	<ellipse class="st6" cx="370.7" cy="159" rx="98.3" ry="3.2"/>
	<g>
		<path class="st7" d="M151.3,96.4c0,0,4.6,2.3,7.8,0s9.8-12.1,9.8-12.1s1-4.2-2-5.9C164,76.7,117.1,45.8,92,42.6
			C67,39.4,78.7,68,80.5,70c1.7,2,9.1,4.7,9.1,4.7s9.1-16.2,14.8-14.7C110,61.4,135,87.8,151.3,96.4z"/>
		
			<linearGradient id="SVGID_7_" gradientUnits="userSpaceOnUse" x1="76.1999" y1="664.8864" x2="169.06" y2="664.8864" gradientTransform="matrix(1 0 0 1 0 -596)">
			<stop  offset="0" style="stop-color:#A4A2A2"/>
			<stop  offset="1" style="stop-color:#000000"/>
		</linearGradient>
		<path class="st8" d="M151.3,95.4c0,0,4.6,2.3,7.8,0s9.8-12.1,9.8-12.1s1-4.2-2-5.9C164,75.7,117.1,44.8,92,41.6
			C67,38.4,78.7,67,80.5,69c1.7,2,9.1,4.7,9.1,4.7s9.1-16.2,14.8-14.7C110,60.4,135,86.9,151.3,95.4z"/>
		<path class="st9" d="M215.4,29c-13.7-2.9-44.2-7.9-68.4-9.2s-61.4,1.1-78.5,3c-17.2,2-17.7,6.1-17.7,6.1v7.4L54.5,56
			c6.1,0,10.6,5.2,13.3,16.4c2.7,11.3,6.1,35.8,16.9,57.9s45.2,27.7,60.4,27.7s38.8-1.5,55-10.8s35.8-43.2,42.2-64.3
			S260,63.8,260,63.8V39.3C244.2,37.9,229.2,32,215.4,29z M230.8,65c0,0-4.9,65.1-40.2,76.6s-72.3,4.9-86.4-4.9
			c-14.1-9.8-25.5-35.3-21.9-77.6c3.6-42.2,80.6-29.2,89-28.5C179.7,31.4,234.1,33.6,230.8,65z"/>
		<path class="st10" d="M215.4,31c-13.7-2.9-44.2-7.9-68.4-9.2s-61.4,1.1-78.5,3c-17.2,2-17.7,6.1-17.7,6.1v7.4L54.5,58
			c6.1,0,10.6,5.2,13.3,16.4c2.7,11.3,6.1,35.8,16.9,57.9s45.2,27.7,60.4,27.7s38.8-1.5,55-10.8s35.8-43.2,42.2-64.3
			S260,65.8,260,65.8V41.3C244.2,39.8,229.2,33.9,215.4,31z M230.8,67c0,0-4.9,65.1-40.2,76.6s-72.3,4.9-86.4-4.9
			c-14.1-9.8-25.5-35.3-21.9-77.6c3.6-42.2,80.6-29.2,89-28.5C179.7,33.3,234.1,35.6,230.8,67z"/>
	</g>
	<g>
		<path class="st7" d="M368.6,96.4c0,0-4.6,2.3-7.8,0c-3.2-2.3-9.8-12.1-9.8-12.1s-1-4.2,2-5.9c2.9-1.7,49.8-32.6,74.9-35.8
			c25-3.2,13.3,25.4,11.5,27.4c-1.7,2-9.1,4.7-9.1,4.7s-9.1-16.2-14.7-14.7S384.9,87.8,368.6,96.4z"/>
		
			<linearGradient id="SVGID_8_" gradientUnits="userSpaceOnUse" x1="-1194.7002" y1="664.8864" x2="-1101.8401" y2="664.8864" gradientTransform="matrix(-1 0 0 1 -751 -596)">
			<stop  offset="0" style="stop-color:#A4A2A2"/>
			<stop  offset="1" style="stop-color:#000000"/>
		</linearGradient>
		<path class="st11" d="M368.6,95.4c0,0-4.6,2.3-7.8,0c-3.2-2.3-9.8-12.1-9.8-12.1s-1-4.2,2-5.9c2.9-1.7,49.8-32.6,74.9-35.8
			c25-3.2,13.3,25.4,11.5,27.4c-1.7,2-9.1,4.7-9.1,4.7s-9.1-16.2-14.7-14.7C409.9,60.4,384.9,86.9,368.6,95.4z"/>
		<path class="st9" d="M259.9,39.3v24.5c0,0,11.3-2,17.7,19.1s26,55,42.2,64.3s39.8,10.8,55,10.8s49.6-5.6,60.4-27.7
			s14.2-46.6,16.9-57.9c2.7-11.3,7.1-16.4,13.3-16.4l3.7-19.6V29c0,0-0.5-4.2-17.7-6.1c-17.2-2-54.3-4.3-78.5-3s-54.6,6.2-68.4,9.2
			C290.7,32,275.7,37.9,259.9,39.3z M348.6,30.7C357,30,434,17,437.6,59.2s-7.9,67.7-21.9,77.6c-14.1,9.8-51,16.4-86.4,4.9
			C294,130.1,289.1,65,289.1,65C285.8,33.6,340.2,31.4,348.6,30.7z"/>
		<path class="st10" d="M259.9,41.3v24.5c0,0,11.3-2,17.7,19.1s26,55,42.2,64.3s39.8,10.8,55,10.8s49.6-5.6,60.4-27.7
			s14.2-46.6,16.9-57.9c2.7-11.3,7.1-16.4,13.3-16.4l3.7-19.6V31c0,0-0.5-4.2-17.7-6.1c-17.2-2-54.3-4.3-78.5-3s-54.6,6.2-68.4,9.2
			C290.7,33.9,275.7,39.8,259.9,41.3z M348.6,32.6c8.4-0.7,85.4-13.7,89,28.5s-7.9,67.7-21.9,77.6c-14.1,9.8-51,16.4-86.4,4.9
			C294,132.1,289.1,67,289.1,67C285.8,35.6,340.2,33.3,348.6,32.6z"/>
	</g>
</g>
</svg>
