<?xml version="1.0" encoding="utf-8"?>
<!-- Generator: Adobe Illustrator 25.3.0, SVG Export Plug-In . SVG Version: 6.00 Build 0)  -->
<svg version="1.1" id="Layer_1" xmlns="http://www.w3.org/2000/svg" xmlns:xlink="http://www.w3.org/1999/xlink" x="0px" y="0px"
	 viewBox="0 0 480 240" style="enable-background:new 0 0 480 240;" xml:space="preserve">
<style type="text/css">
	.st0{opacity:0.3;fill:url(#SVGID_1_);enable-background:new    ;}
	.st1{opacity:0.3;fill:url(#SVGID_2_);enable-background:new    ;}
	.st2{fill:url(#SVGID_3_);}
	.st3{fill:url(#SVGID_4_);}
	.st4{fill:url(#SVGID_5_);}
	.st5{fill:url(#SVGID_6_);}
	.st6{fill:#010101;}
	.st7{fill:url(#SVGID_7_);}
	.st8{fill:#676767;}
	.st9{fill:#020303;}
	.st10{fill:url(#SVGID_8_);}
	.st11{fill:#003fff;}
</style>
<g>
	
		<linearGradient id="SVGID_1_" gradientUnits="userSpaceOnUse" x1="60.0149" y1="136.8569" x2="144.0027" y2="136.8569" gradientTransform="matrix(1 0 0 -1 0 242)">
		<stop  offset="0" style="stop-color:#F3EDE5"/>
		<stop  offset="0.6126" style="stop-color:#696462"/>
		<stop  offset="1" style="stop-color:#333333"/>
	</linearGradient>
	<path class="st0" d="M139.3,93.1c0,0,5.4,0.2,4.6,2c-0.8,1.8-8.5,5.2-15.2,5.6c-6.7,0.3-29.8,1-41.3,5.4s-21.1,11.1-21.1,11.1
		l-6.2-5.1c0,0,29.9-11.7,42-12.6C129.2,97.5,132.3,92.8,139.3,93.1z"/>
	
		<linearGradient id="SVGID_2_" gradientUnits="userSpaceOnUse" x1="-1103.7556" y1="136.8569" x2="-1019.7683" y2="136.8569" gradientTransform="matrix(-1 0 0 -1 -684.3164 242)">
		<stop  offset="0" style="stop-color:#F3EDE5"/>
		<stop  offset="0.6126" style="stop-color:#696462"/>
		<stop  offset="1" style="stop-color:#333333"/>
	</linearGradient>
	<path class="st1" d="M340.1,93.1c0,0-5.4,0.2-4.6,2s8.5,5.2,15.2,5.6c6.7,0.3,29.8,1,41.3,5.4s21.1,11.1,21.1,11.1l6.2-5.1
		c0,0-29.9-11.7-42-12.6C350.3,97.5,347.2,92.8,340.1,93.1z"/>
	
		<radialGradient id="SVGID_3_" cx="-148.9953" cy="-182145.7031" r="45.2221" gradientTransform="matrix(1.9817 0 0 -6.507500e-02 425.864 -11694.2324)" gradientUnits="userSpaceOnUse">
		<stop  offset="0" style="stop-color:#333333"/>
		<stop  offset="0.2109" style="stop-color:#5B5755"/>
		<stop  offset="0.4728" style="stop-color:#908A87"/>
		<stop  offset="0.7013" style="stop-color:#C0BAB5"/>
		<stop  offset="0.8846" style="stop-color:#E2DDD5"/>
		<stop  offset="1" style="stop-color:#F3EDE5"/>
	</radialGradient>
	<ellipse class="st2" cx="130.6" cy="158.9" rx="90.6" ry="3.2"/>
	
		<radialGradient id="SVGID_4_" cx="435.8943" cy="-181182.0156" r="45.2478" gradientTransform="matrix(0.7636 0 0 -6.507500e-02 -197.6489 -11694.2324)" gradientUnits="userSpaceOnUse">
		<stop  offset="0" style="stop-color:#333333"/>
		<stop  offset="0.2109" style="stop-color:#5B5755"/>
		<stop  offset="0.4728" style="stop-color:#908A87"/>
		<stop  offset="0.7013" style="stop-color:#C0BAB5"/>
		<stop  offset="0.8846" style="stop-color:#E2DDD5"/>
		<stop  offset="1" style="stop-color:#F3EDE5"/>
	</radialGradient>
	<ellipse class="st3" cx="135.2" cy="96.2" rx="34.9" ry="3.2"/>
	
		<radialGradient id="SVGID_5_" cx="710.2526" cy="-181182.0156" r="45.2028" gradientTransform="matrix(0.7636 0 0 -6.507500e-02 -197.6489 -11694.2324)" gradientUnits="userSpaceOnUse">
		<stop  offset="0" style="stop-color:#333333"/>
		<stop  offset="0.2109" style="stop-color:#5B5755"/>
		<stop  offset="0.4728" style="stop-color:#908A87"/>
		<stop  offset="0.7013" style="stop-color:#C0BAB5"/>
		<stop  offset="0.8846" style="stop-color:#E2DDD5"/>
		<stop  offset="1" style="stop-color:#F3EDE5"/>
	</radialGradient>
	<ellipse class="st4" cx="344.7" cy="96.2" rx="34.9" ry="3.2"/>
	
		<radialGradient id="SVGID_6_" cx="-72.2347" cy="-182145.7031" r="45.2081" gradientTransform="matrix(2.1541 0 0 -6.507500e-02 506.5009 -11694.2324)" gradientUnits="userSpaceOnUse">
		<stop  offset="0" style="stop-color:#333333"/>
		<stop  offset="0.2109" style="stop-color:#5B5755"/>
		<stop  offset="0.4728" style="stop-color:#908A87"/>
		<stop  offset="0.7013" style="stop-color:#C0BAB5"/>
		<stop  offset="0.8846" style="stop-color:#E2DDD5"/>
		<stop  offset="1" style="stop-color:#F3EDE5"/>
	</radialGradient>
	<ellipse class="st5" cx="350.9" cy="158.9" rx="98.5" ry="3.2"/>
	<g>
		<path class="st6" d="M131.1,96.2c0,0,4.6,2.3,7.8,0s9.8-12.1,9.8-12.1s1-4.2-2-5.9c-2.9-1.7-49.9-32.7-75-35.9
			c-25-3.3-13.2,25.4-11.4,27.4c1.7,2,9.1,4.7,9.1,4.7s9.1-16.2,14.7-14.7C89.8,61.2,114.7,87.6,131.1,96.2z"/>
		
			<linearGradient id="SVGID_7_" gradientUnits="userSpaceOnUse" x1="55.9891" y1="173.3636" x2="148.9992" y2="173.3636" gradientTransform="matrix(1 0 0 -1 0 242)">
			<stop  offset="0" style="stop-color:#A4A2A2"/>
			<stop  offset="1" style="stop-color:#000000"/>
		</linearGradient>
		<path class="st7" d="M131.1,95.2c0,0,4.6,2.3,7.8,0s9.8-12.1,9.8-12.1s1-4.2-2-5.9c-2.9-1.7-49.9-32.7-75-35.9
			S58.4,66.7,60.1,68.8c1.7,2,9.1,4.7,9.1,4.7s9.1-16.2,14.7-14.7C89.8,60.2,114.7,86.6,131.1,95.2z"/>
		<path class="st8" d="M195.4,28.7c-13.8-2.9-44.2-7.9-68.5-9.2c-24.3-1.3-61.5,1.1-78.7,3c-17.2,2-17.7,6.1-17.7,6.1V36l3.7,19.7
			c6.1,0,10.6,5.2,13.3,16.5s6.1,35.9,17,58C75.3,152.3,109.7,158,125,158c15.2,0,38.8-1.5,55.1-10.8c16.2-9.3,35.9-43.3,42.3-64.4
			c6.4-21.1,17.7-19.2,17.7-19.2V39C224.2,37.6,209.1,31.7,195.4,28.7z M210.8,64.8c0,0-4.9,65.2-40.3,76.7s-72.4,4.9-86.5-4.9
			c-14.1-9.8-25.6-35.4-22-77.7s80.7-29.2,89.1-28.5C159.6,31.1,214.1,33.3,210.8,64.8z"/>
		<path class="st9" d="M195.4,30.7c-13.8-2.9-44.2-7.9-68.5-9.2c-24.3-1.3-61.5,1.1-78.7,3c-17.2,2-17.7,6.1-17.7,6.1V38l3.7,19.7
			c6.1,0,10.6,5.2,13.3,16.5s6.1,35.9,17,58C75.3,154.3,109.7,160,125,160c15.2,0,38.8-1.5,55.1-10.8c16.2-9.3,35.9-43.3,42.3-64.4
			c6.4-21.1,17.7-19.2,17.7-19.2V41C224.2,39.5,209.1,33.6,195.4,30.7z M210.8,66.7c0,0-4.9,65.2-40.3,76.7s-72.4,4.9-86.5-4.9
			c-14.1-9.8-25.6-35.4-22-77.7s80.7-29.2,89.1-28.5C159.6,33,214.1,35.3,210.8,66.7z"/>
	</g>
	<g>
		<path class="st6" d="M348.8,96.2c0,0-4.6,2.3-7.8,0c-3.2-2.3-9.8-12.1-9.8-12.1s-1-4.2,2-5.9c2.9-1.7,49.9-32.7,75-35.9
			s13.3,25.4,11.6,27.5c-1.7,2-9.1,4.7-9.1,4.7s-9.1-16.2-14.7-14.7C390.1,61.2,365.1,87.6,348.8,96.2z"/>
		
			<linearGradient id="SVGID_8_" gradientUnits="userSpaceOnUse" x1="-1174.9065" y1="173.3636" x2="-1081.8964" y2="173.3636" gradientTransform="matrix(-1 0 0 -1 -751 242)">
			<stop  offset="0" style="stop-color:#A4A2A2"/>
			<stop  offset="1" style="stop-color:#000000"/>
		</linearGradient>
		<path class="st10" d="M348.8,95.2c0,0-4.6,2.3-7.8,0c-3.2-2.3-9.8-12.1-9.8-12.1s-1-4.2,2-5.9c2.9-1.7,49.9-32.7,75-35.9
			s13.3,25.4,11.6,27.5c-1.7,2-9.1,4.7-9.1,4.7s-9.1-16.2-14.7-14.7C390.1,60.2,365.1,86.6,348.8,95.2z"/>
		<path class="st8" d="M239.9,39v24.6c0,0,11.3-2,17.7,19.2c6.4,21.1,26.1,55.1,42.3,64.4c16.2,9.3,39.8,10.8,55.1,10.8
			c15.2,0,49.7-5.7,60.5-27.8s14.3-46.7,17-58s7.1-16.5,13.3-16.5l3.7-19.7v-7.4c0,0-0.5-4.2-17.7-6.1c-17.2-2-54.4-4.3-78.7-3
			c-24.3,1.3-54.7,6.2-68.5,9.2C270.8,31.7,255.7,37.6,239.9,39z M328.8,30.4c8.5-0.7,85.5-13.8,89.1,28.5s-7.9,67.8-22,77.7
			c-14.1,9.8-51.1,16.4-86.5,4.9s-40.3-76.7-40.3-76.7C265.8,33.3,320.3,31.1,328.8,30.4z"/>
		<path class="st9" d="M239.9,41v24.6c0,0,11.3-2,17.7,19.2c6.4,21.1,26.1,55.1,42.3,64.4c16.2,9.3,39.8,10.8,55.1,10.8
			c15.2,0,49.7-5.7,60.5-27.8s14.3-46.7,17-58s7.1-16.5,13.3-16.5l3.7-19.7v-7.4c0,0-0.5-4.2-17.7-6.1c-17.2-2-54.4-4.3-78.7-3
			c-24.3,1.3-54.7,6.2-68.5,9.2C270.8,33.6,255.7,39.5,239.9,41z M328.8,32.3c8.5-0.7,85.5-13.8,89.1,28.5s-7.9,67.8-22,77.7
			c-14.1,9.8-51.1,16.4-86.5,4.9C274,132,269.1,66.7,269.1,66.7C265.8,35.3,320.3,33,328.8,32.3z"/>
	</g>
</g>
<polygon class="st11" points="272,221.7 300.8,197.1 302.9,197.1 270.5,168.8 268.5,171.2 294.6,193.9 235,193.9 235,197.1 
	296,197.1 269.9,219.4 "/>
<polygon class="st11" points="196.1,221.7 167.3,197.1 165.2,197.1 197.6,168.8 199.6,171.2 173.5,193.9 276.2,193.9 276.2,197.1 
	172.1,197.1 198.2,219.4 "/>
</svg>
