<svg xmlns="http://www.w3.org/2000/svg" id="Layer_1" data-name="Layer 1" viewBox="0 0 282.43 77.51"><defs><style>.cls-1{opacity:.5}.cls-1,.cls-2{fill:#003fff}</style></defs><path d="M268.27 2.51a23.156 23.156 0 0 0-18.32-.63 23.466 23.466 0 0 0-13.74 12.25 22.518 22.518 0 0 0-2.24 11.67l-5.42 2a22.618 22.618 0 0 0-9.19-7.47c-12.07-5.34-26.2-.19-32 11.67-5.58 11.82-.52 25.93 11.3 31.51.04.02.09.04.13.06a23.44 23.44 0 0 0 18.42.58c6.04-2.05 10.97-6.5 13.63-12.29 1.97-4.03 2.7-8.56 2.08-13l4.32-1.57 14.51 39.87 11.4-4.12-9.3-25.53c4.13.7 8.38.29 12.3-1.18a23.38 23.38 0 0 0 13.64-12.25c2.77-5.68 3.06-12.25.8-18.15a22.81 22.81 0 0 0-12.32-13.42ZM219.8 46.77c-1.3 2.87-3.73 5.08-6.71 6.11-2.96 1.12-6.25 1-9.11-.35a11.187 11.187 0 0 1-6.12-6.58c-1.12-2.91-.95-6.16.48-8.93a11.72 11.72 0 0 1 6.81-6.09c2.93-1.11 6.18-.97 9 .38 5.8 2.59 8.4 9.39 5.82 15.19-.04.09-.08.18-.13.27h-.04Zm49-17.77a11.495 11.495 0 0 1-6.72 6.07 11.663 11.663 0 0 1-9.09-.31c-5.81-2.6-8.41-9.43-5.81-15.24.05-.1.1-.21.15-.31a11.68 11.68 0 0 1 6.77-6.09c2.92-1.12 6.17-1 9 .33 5.84 2.69 8.4 9.61 5.7 15.46-.01.03-.03.06-.04.09h.04ZM62.91 45.46h16.82c.22.04.43-.12.47-.34V31.63a.418.418 0 0 0-.35-.48H62.91a.418.418 0 0 0-.47.36V44.99c.01.25.22.46.47.47ZM78.63 7.89h22v68.23c0 .79-.31 1.1-1.1 1.1H87.12c-.78 0-1.1-.31-1.1-1.1V14.78c0-.78-.31-1.1-1.1-1.1h-5.19c-.78 0-1.1-.31-1.1-1.1V7.89ZM106.93 7.89h48.11v4.71c0 .79-.31 1.1-1.1 1.1h-29.87c-.79 0-1.1.32-1.1 1.1v13.68c0 .79.31 1.1 1.1 1.1h10.85c5.5 0 9.9.79 13.2 2.2 2.89 1.23 5.42 3.18 7.36 5.66 1.65 2.28 2.73 4.93 3.15 7.71.43 2.64.64 5.32.63 8 .02 3.2-.46 6.38-1.42 9.43-.81 2.86-2.26 5.49-4.24 7.7a17.294 17.294 0 0 1-7.55 5c-3.56 1.36-7.35 2-11.16 1.89h-27c-.79 0-1.11-.31-1.11-1.1V64.96c0-.79.32-1.1 1.11-1.1h25.47c2.37-.01 4.63-.98 6.28-2.68 1.95-2.19 2.97-5.07 2.83-8 .05-1.76-.22-3.52-.78-5.19a5.725 5.725 0 0 0-2-2.83 6.356 6.356 0 0 0-3-1.26c-1.14-.19-2.3-.29-3.46-.31h-25.35c-.79 0-1.11-.32-1.11-1.11V7.89h.16Z" class="cls-2"/><path d="M4.42 1.44c0-.79.32-1.1 1.1-1.1h38.84c2.48 0 4.94.5 7.23 1.44 2.14.83 4.07 2.12 5.66 3.78.8.72 1.47 1.57 2 2.51H4.42V1.44ZM104.73 7.89V4.27c.11-1.12-.3-2.22-1.1-3-.86-.66-1.92-.99-3-.94h-17c-.78 0-1.1.31-1.1 1.1v6.45h22.2ZM159.13 7.89V1.44c0-.79-.31-1.1-1.1-1.1h-46.07c-.78 0-1.1.31-1.1 1.1v6.45h48.27Z" class="cls-1"/><path d="M60.39 50.18c-.13-.91-.34-1.8-.63-2.67-.29-.92-.66-1.82-1.1-2.68-.4-.78-.87-1.51-1.41-2.2-1.42-1.57-2.67-2.67-3.77-3.93s-1.58-1.89-1.58-2.2c0-.16.32-.47 1-.94.88-.63 1.63-1.44 2.2-2.36 1.03-1.52 1.78-3.21 2.2-5 .72-2.98 1.04-6.05.94-9.12.05-2.69-.43-5.36-1.41-7.86-.63-1.26-1.26-2.2-1.73-3.3H.33v68.23c0 .79.32 1.1 1.1 1.1h38.21c3.5.13 7-.51 10.22-1.89 2.55-1.23 4.77-3.06 6.45-5.34 1.71-2.34 2.89-5.02 3.45-7.86.67-3.15 1-6.37 1-9.59-.21-.66-.21-1.45-.37-2.39ZM16.06 30.05V15.28c0-.79.31-1.11 1.1-1.11h18.39c1.97 0 3.9.6 5.51 1.73 1.57 1.26 2.35 3.31 2.35 6.45 0 3.3-.63 5.5-1.73 6.76-1.25 1.42-3.3 1.89-6.13 1.89H17c-.79 0-1.1-.32-.94-1v.05Zm29.71 26.89c-.2 1.05-.57 2.07-1.1 3-.5.88-1.14 1.67-1.89 2.35-.85.69-1.91 1.04-3 1H17c-.79 0-1.1-.32-1.1-1.1h.16V46.41c0-.79.31-1.11 1.1-1.11H39.8c1.55.1 3.01.77 4.09 1.89.65.81 1.19 1.71 1.59 2.67.47 1.36.69 2.81.63 4.25-.18.94-.18 1.73-.34 2.83Z" class="cls-2"/></svg>